<svg width="90" height="148" viewBox="0 0 90 148" fill="none" xmlns="http://www.w3.org/2000/svg">
<path d="M87.5476 117.678C87.7944 117.431 88.1028 117.307 88.473 117.307C88.8432 117.307 89.2134 117.431 89.5836 117.678C89.9537 117.801 90.0771 117.924 89.9537 118.048C88.7198 126.068 88.1028 134.829 88.1028 144.331C88.1028 145.318 87.9177 146.058 87.5476 146.552C87.1774 146.922 86.437 147.107 85.3265 147.107H0.925455C0.431882 147.107 0.185101 146.737 0.185101 145.996C0.185101 145.256 0.37019 144.886 0.74037 144.886C4.44217 144.886 7.09512 144.577 8.69923 143.96C10.4267 143.343 11.5373 142.171 12.0308 140.444C12.6478 138.716 12.9563 135.94 12.9563 132.115V46.4179C12.9563 42.7161 12.6478 40.0015 12.0308 38.274C11.4139 36.5465 10.2417 35.3742 8.51415 34.7573C6.78664 34.0169 4.19538 33.6467 0.74037 33.6467C0.37019 33.6467 0.123393 33.2765 0 32.5362C0 31.7958 0.123399 31.4256 0.370185 31.4256H80.144C81.1311 31.4256 81.6247 31.9809 81.6247 33.0914L81.9948 57.5233C81.9948 57.8935 81.6247 58.0786 80.8843 58.0786C80.2674 58.0786 79.8972 57.9552 79.7738 57.7084C77.6761 50.7984 73.8509 45.3691 68.2982 41.4205C62.8689 37.3485 56.3907 35.3125 48.8638 35.3125H45.347C41.5219 35.3125 38.7455 35.621 37.018 36.238C35.4139 36.7316 34.365 37.7187 33.8715 39.1994C33.3779 40.6801 33.0694 43.148 32.946 46.603V84.3614H56.0823C62.3753 84.3614 67.0026 83.2508 69.964 81.0298C72.9255 78.8087 74.4062 75.2303 74.4062 70.2945C74.4062 69.801 74.838 69.5542 75.7018 69.5542C76.5656 69.5542 76.9974 69.8627 76.9974 70.4796L76.8123 80.6596C76.6889 82.1403 76.6273 84.238 76.6273 86.9526C76.6273 90.9012 76.6889 93.8627 76.8123 95.837L76.9974 105.832C76.9974 106.449 76.6272 106.757 75.8869 106.757C75.5167 106.757 75.1465 106.696 74.7763 106.572C74.5296 106.325 74.4062 106.079 74.4062 105.832C74.4062 100.526 72.7404 96.5156 69.4087 93.801C66.2005 90.9629 61.635 89.5439 55.7121 89.5439H32.946V131.374C32.946 136.31 33.6864 139.518 35.1671 140.999C36.7712 142.48 40.0411 143.22 44.9769 143.22H50.1594C58.18 143.22 65.5219 140.937 72.1851 136.372C78.8483 131.683 83.9692 125.451 87.5476 117.678ZM34.2417 21.6159C33.7481 21.6159 33.3779 21.3691 33.1311 20.8755C32.8843 20.2585 32.946 19.8267 33.3162 19.5799C36.401 17.112 40.473 13.2251 45.5321 7.91921C50.5913 2.86008 53.1208 0.330517 53.1208 0.330517C53.7378 -0.286449 55.9589 -0.039661 59.7841 1.07088C63.7326 2.05803 67.2494 3.29196 70.3342 4.77268C73.5424 6.13001 74.4679 6.93206 73.1105 7.17885C59.9075 10.6339 47.0745 15.3845 34.6118 21.4308L34.2417 21.6159Z" fill="#6B6B6B" fill-opacity="0.5"/>
</svg>
