<svg width="278" height="36" viewBox="0 0 278 36" fill="none" xmlns="http://www.w3.org/2000/svg">
<path d="M277.223 7.5C277.311 7.5 277.355 7.588 277.355 7.764C277.355 7.94 277.311 8.028 277.223 8.028C276.02 8.028 275.037 8.43867 274.275 9.26C273.541 10.0813 273.16 11.196 273.131 12.604L273.087 35.308C273.116 35.396 273.043 35.4693 272.867 35.528C272.72 35.616 272.544 35.66 272.339 35.66C272.045 35.66 271.855 35.572 271.767 35.396L253.331 12.252L253.287 29.896C253.257 31.304 253.609 32.4187 254.343 33.24C255.076 34.0613 256.059 34.472 257.291 34.472C257.408 34.472 257.467 34.56 257.467 34.736C257.467 34.912 257.408 35 257.291 35C256.469 35 255.839 34.9853 255.399 34.956L252.627 34.912L249.987 34.956C249.488 34.9853 248.784 35 247.875 35C247.757 35 247.699 34.912 247.699 34.736C247.699 34.56 247.757 34.472 247.875 34.472C249.107 34.472 250.075 34.0613 250.779 33.24C251.512 32.4187 251.893 31.304 251.923 29.896L251.967 10.58C251.116 9.64133 250.353 8.98133 249.679 8.6C249.033 8.21866 248.359 8.028 247.655 8.028C247.596 8.028 247.567 7.94 247.567 7.764C247.567 7.588 247.596 7.5 247.655 7.5L250.031 7.544C250.5 7.57333 251.131 7.588 251.923 7.588C252.715 7.588 253.375 7.57333 253.903 7.544C254.46 7.51467 254.827 7.5 255.003 7.5C255.237 7.5 255.413 7.55867 255.531 7.676C255.677 7.79333 255.839 8.01333 256.015 8.336C256.367 8.864 256.719 9.348 257.071 9.788L271.723 28.092L271.811 12.604C271.84 11.196 271.488 10.0813 270.755 9.26C270.051 8.43867 269.068 8.028 267.807 8.028C267.689 8.028 267.631 7.94 267.631 7.764C267.631 7.588 267.689 7.5 267.807 7.5L269.523 7.544C270.696 7.60267 271.679 7.632 272.471 7.632C273.087 7.632 273.952 7.60267 275.067 7.544L277.223 7.5Z" fill="white"/>
<path d="M242.715 28.004C242.774 27.9453 242.847 27.916 242.935 27.916C243.023 27.916 243.111 27.9453 243.199 28.004C243.287 28.0333 243.316 28.0627 243.287 28.092C242.994 29.9987 242.847 32.0813 242.847 34.34C242.847 34.5747 242.803 34.7507 242.715 34.868C242.627 34.956 242.451 35 242.187 35H222.123C222.006 35 221.947 34.912 221.947 34.736C221.947 34.56 221.991 34.472 222.079 34.472C222.959 34.472 223.59 34.3987 223.971 34.252C224.382 34.1053 224.646 33.8267 224.763 33.416C224.91 33.0053 224.983 32.3453 224.983 31.436V11.064C224.983 10.184 224.91 9.53867 224.763 9.128C224.616 8.71733 224.338 8.43866 223.927 8.292C223.516 8.116 222.9 8.028 222.079 8.028C221.991 8.028 221.932 7.94 221.903 7.764C221.903 7.588 221.932 7.5 221.991 7.5H240.955C241.19 7.5 241.307 7.632 241.307 7.896L241.395 13.704C241.395 13.792 241.307 13.836 241.131 13.836C240.984 13.836 240.896 13.8067 240.867 13.748C240.368 12.1053 239.459 10.8147 238.139 9.876C236.848 8.908 235.308 8.424 233.519 8.424H232.683C231.774 8.424 231.114 8.49733 230.703 8.644C230.322 8.76133 230.072 8.996 229.955 9.348C229.838 9.7 229.764 10.2867 229.735 11.108V20.084H235.235C236.731 20.084 237.831 19.82 238.535 19.292C239.239 18.764 239.591 17.9133 239.591 16.74C239.591 16.6227 239.694 16.564 239.899 16.564C240.104 16.564 240.207 16.6373 240.207 16.784L240.163 19.204C240.134 19.556 240.119 20.0547 240.119 20.7C240.119 21.6387 240.134 22.3427 240.163 22.812L240.207 25.188C240.207 25.3347 240.119 25.408 239.943 25.408C239.855 25.408 239.767 25.3933 239.679 25.364C239.62 25.3053 239.591 25.2467 239.591 25.188C239.591 23.9267 239.195 22.9733 238.403 22.328C237.64 21.6533 236.555 21.316 235.147 21.316H229.735V31.26C229.735 32.4333 229.911 33.196 230.263 33.548C230.644 33.9 231.422 34.076 232.595 34.076H233.827C235.734 34.076 237.479 33.5333 239.063 32.448C240.647 31.3333 241.864 29.852 242.715 28.004Z" fill="white"/>
<path d="M204.682 35C204.623 35 204.594 34.912 204.594 34.736C204.594 34.56 204.623 34.472 204.682 34.472C205.591 34.472 206.236 34.3987 206.618 34.252C207.028 34.1053 207.307 33.8267 207.454 33.416C207.6 33.0053 207.674 32.3453 207.674 31.436V11.064C207.674 10.2133 207.586 9.58267 207.41 9.172C207.263 8.732 206.984 8.43866 206.574 8.292C206.163 8.116 205.532 8.028 204.682 8.028C204.623 8.028 204.579 7.94 204.55 7.764C204.55 7.588 204.594 7.5 204.682 7.5L206.882 7.544C208.172 7.60267 209.214 7.632 210.006 7.632C210.886 7.632 212 7.60267 213.35 7.544L215.506 7.5C215.564 7.5 215.594 7.588 215.594 7.764C215.594 7.94 215.564 8.028 215.506 8.028C214.626 8.028 213.98 8.116 213.57 8.292C213.159 8.468 212.88 8.76133 212.734 9.172C212.616 9.58267 212.543 10.2427 212.514 11.152V31.436C212.514 32.316 212.587 32.9613 212.734 33.372C212.91 33.7827 213.203 34.076 213.614 34.252C214.024 34.3987 214.655 34.472 215.506 34.472C215.564 34.472 215.594 34.56 215.594 34.736C215.594 34.912 215.564 35 215.506 35C214.596 35 213.863 34.9853 213.306 34.956L210.094 34.912L206.97 34.956C206.412 34.9853 205.65 35 204.682 35Z" fill="white"/>
<path d="M201.094 34.472C201.182 34.472 201.226 34.56 201.226 34.736C201.256 34.912 201.212 35 201.094 35H193.878C193.174 35 191.942 33.8267 190.182 31.48C188.452 29.104 186.354 25.54 183.89 20.788C183.069 20.9933 182.16 21.096 181.162 21.096C181.016 21.096 180.825 21.0667 180.59 21.008V31.436C180.561 32.2867 180.62 32.932 180.766 33.372C180.942 33.7827 181.236 34.076 181.646 34.252C182.086 34.3987 182.746 34.472 183.626 34.472C183.744 34.472 183.802 34.56 183.802 34.736C183.832 34.912 183.788 35 183.67 35C182.673 35 181.91 34.9853 181.382 34.956L178.126 34.912L174.826 34.956C174.24 34.9853 173.448 35 172.45 35C172.333 35 172.26 34.912 172.23 34.736C172.23 34.56 172.289 34.472 172.406 34.472C173.374 34.472 174.093 34.3987 174.562 34.252C175.032 34.076 175.34 33.7827 175.486 33.372C175.662 32.932 175.765 32.2867 175.794 31.436V11.064C175.794 10.184 175.706 9.53868 175.53 9.12801C175.384 8.71734 175.09 8.43868 174.65 8.29201C174.21 8.11601 173.536 8.02801 172.626 8.02801C172.509 8.02801 172.45 7.94001 172.45 7.76401C172.45 7.58801 172.509 7.50001 172.626 7.50001L174.958 7.54401C176.249 7.60268 177.305 7.63201 178.126 7.63201C179.124 7.63201 180.209 7.57334 181.382 7.45601C182.321 7.39734 182.937 7.36801 183.23 7.36801C186.193 7.36801 188.408 7.85201 189.874 8.82001C191.37 9.78801 192.118 11.1373 192.118 12.868C192.118 14.1293 191.693 15.3467 190.842 16.52C190.021 17.6933 188.921 18.676 187.542 19.468C189.83 23.252 191.766 26.2293 193.35 28.4C194.964 30.5413 196.372 32.096 197.574 33.064C198.806 34.0027 199.98 34.472 201.094 34.472ZM180.59 19.776C180.942 19.864 181.368 19.908 181.866 19.908C183.802 19.908 185.166 19.4827 185.958 18.632C186.78 17.7813 187.19 16.3587 187.19 14.364C187.19 12.2813 186.78 10.756 185.958 9.78801C185.166 8.79068 184.184 8.29201 183.01 8.29201C182.218 8.29201 181.676 8.35068 181.382 8.46801C181.089 8.55601 180.884 8.79068 180.766 9.17201C180.678 9.52401 180.62 10.184 180.59 11.152V19.776Z" fill="white"/>
<path d="M166.713 34.472C166.801 34.472 166.845 34.56 166.845 34.736C166.845 34.912 166.801 35 166.713 35L162.401 34.956L159.057 35C158.735 35 158.529 34.956 158.441 34.868C158.383 34.78 158.353 34.5453 158.353 34.164V32.228C156.945 33.4013 155.523 34.252 154.085 34.78C152.677 35.2787 151.137 35.528 149.465 35.528C147.383 35.528 145.52 35.176 143.877 34.472C142.235 33.768 140.944 32.756 140.005 31.436C139.067 30.116 138.597 28.576 138.597 26.816V11.064C138.597 10.2133 138.509 9.58267 138.333 9.172C138.187 8.732 137.908 8.43866 137.497 8.292C137.087 8.116 136.471 8.028 135.649 8.028C135.561 8.028 135.517 7.94 135.517 7.764C135.517 7.588 135.561 7.5 135.649 7.5L137.805 7.544C139.037 7.60267 140.079 7.632 140.929 7.632C141.692 7.632 142.748 7.60267 144.097 7.544L146.297 7.5C146.415 7.5 146.473 7.588 146.473 7.764C146.503 7.94 146.473 8.028 146.385 8.028C145.505 8.028 144.845 8.116 144.405 8.292C143.995 8.468 143.716 8.76133 143.569 9.172C143.452 9.58267 143.379 10.2427 143.349 11.152V25.276C143.32 28.004 143.995 30.1307 145.373 31.656C146.752 33.152 148.673 33.9 151.137 33.9C152.399 33.9 153.601 33.68 154.745 33.24C155.889 32.7707 157.092 32.008 158.353 30.952L158.309 11.152C158.339 9.89066 158.163 9.05467 157.781 8.644C157.4 8.23333 156.608 8.028 155.405 8.028C155.317 8.028 155.273 7.94 155.273 7.764C155.273 7.588 155.303 7.5 155.361 7.5L157.561 7.544C158.852 7.60267 159.908 7.632 160.729 7.632C161.463 7.632 162.504 7.60267 163.853 7.544L166.053 7.5C166.171 7.5 166.229 7.588 166.229 7.764C166.259 7.94 166.229 8.028 166.141 8.028C165.261 8.028 164.601 8.116 164.161 8.292C163.751 8.43866 163.472 8.71733 163.325 9.128C163.179 9.53867 163.105 10.184 163.105 11.064V31.436C163.105 32.316 163.193 32.976 163.369 33.416C163.545 33.8267 163.883 34.1053 164.381 34.252C164.88 34.3987 165.657 34.472 166.713 34.472Z" fill="white"/>
<path d="M121.712 35.528C118.104 35.528 115.141 34.824 112.824 33.416C110.506 32.008 108.834 30.2333 107.808 28.092C106.781 25.9213 106.268 23.6333 106.268 21.228C106.268 18.324 106.972 15.8013 108.38 13.66C109.817 11.4893 111.709 9.84666 114.056 8.73199C116.432 7.58799 118.998 7.01599 121.756 7.01599C123.105 7.01599 124.513 7.14799 125.98 7.41199C127.446 7.64666 128.634 7.93999 129.544 8.29199C129.778 8.43866 129.925 8.57066 129.984 8.68799C130.072 8.80532 130.116 9.01066 130.116 9.30399L130.424 15.2C130.424 15.288 130.35 15.332 130.204 15.332C130.086 15.332 129.998 15.288 129.94 15.2C128.854 12.9707 127.461 11.2547 125.76 10.052C124.088 8.81999 122.181 8.20399 120.04 8.20399C117.253 8.20399 115.112 9.21599 113.616 11.24C112.149 13.264 111.416 16.1093 111.416 19.776C111.416 22.416 111.87 24.88 112.78 27.168C113.718 29.456 114.98 31.2747 116.564 32.624C118.148 33.9733 119.893 34.648 121.8 34.648C124.821 34.648 127.637 32.4187 130.248 27.96C130.306 27.872 130.38 27.828 130.468 27.828C130.644 27.828 130.732 27.916 130.732 28.092L130.468 33.152C130.409 33.5333 130.35 33.7827 130.292 33.9C130.233 33.988 130.072 34.076 129.808 34.164C127.226 35.0733 124.528 35.528 121.712 35.528Z" fill="white"/>
<path d="M89.6181 35C89.5594 35 89.5301 34.912 89.5301 34.736C89.5301 34.56 89.5594 34.472 89.6181 34.472C90.5274 34.472 91.1728 34.3987 91.5541 34.252C91.9648 34.1053 92.2434 33.8267 92.3901 33.416C92.5368 33.0053 92.6101 32.3453 92.6101 31.436V11.064C92.6101 10.2133 92.5221 9.58267 92.3461 9.172C92.1994 8.732 91.9208 8.43866 91.5101 8.292C91.0994 8.116 90.4687 8.028 89.6181 8.028C89.5594 8.028 89.5154 7.94 89.4861 7.764C89.4861 7.588 89.5301 7.5 89.6181 7.5L91.8181 7.544C93.1088 7.60267 94.1501 7.632 94.9421 7.632C95.8221 7.632 96.9368 7.60267 98.2861 7.544L100.442 7.5C100.501 7.5 100.53 7.588 100.53 7.764C100.53 7.94 100.501 8.028 100.442 8.028C99.5621 8.028 98.9167 8.116 98.5061 8.292C98.0954 8.468 97.8167 8.76133 97.6701 9.172C97.5527 9.58267 97.4794 10.2427 97.4501 11.152V31.436C97.4501 32.316 97.5234 32.9613 97.6701 33.372C97.8461 33.7827 98.1394 34.076 98.5501 34.252C98.9608 34.3987 99.5914 34.472 100.442 34.472C100.501 34.472 100.53 34.56 100.53 34.736C100.53 34.912 100.501 35 100.442 35C99.5328 35 98.7994 34.9853 98.2421 34.956L95.0301 34.912L91.9061 34.956C91.3487 34.9853 90.5861 35 89.6181 35Z" fill="white"/>
<path d="M62.1524 35C62.0644 35 62.0204 34.912 62.0204 34.736C62.0204 34.56 62.0644 34.472 62.1524 34.472C63.0617 34.472 63.7217 34.3987 64.1324 34.252C64.5431 34.1053 64.8217 33.8267 64.9684 33.416C65.1151 32.976 65.1884 32.316 65.1884 31.436V11.064C65.1884 10.184 65.1004 9.53868 64.9244 9.12801C64.7777 8.71734 64.4844 8.43868 64.0444 8.29201C63.6337 8.11601 63.0031 8.02801 62.1524 8.02801C62.0644 8.02801 62.0204 7.94001 62.0204 7.76401C62.0204 7.58801 62.0644 7.50001 62.1524 7.50001L64.3084 7.54401C65.5404 7.60268 66.5671 7.63201 67.3884 7.63201C68.5324 7.63201 69.8084 7.57334 71.2164 7.45601C72.2137 7.39734 72.8737 7.36801 73.1964 7.36801C76.3057 7.36801 78.8284 7.99868 80.7644 9.26001C82.7297 10.5213 83.7124 12.34 83.7124 14.716C83.7124 16.652 83.1844 18.28 82.1284 19.6C81.0724 20.92 79.7524 21.9027 78.1684 22.548C76.5844 23.164 75.0004 23.472 73.4164 23.472C72.5364 23.472 71.8471 23.3987 71.3484 23.252C71.2897 23.252 71.2604 23.1493 71.2604 22.944C71.2604 22.7973 71.2751 22.6653 71.3044 22.548C71.3631 22.4013 71.4217 22.3427 71.4804 22.372C71.8617 22.4893 72.3311 22.548 72.8884 22.548C74.5311 22.548 75.8804 21.976 76.9364 20.832C78.0217 19.6587 78.5644 17.9133 78.5644 15.596C78.5644 14.1 78.2711 12.8093 77.6844 11.724C77.0977 10.6093 76.3351 9.75868 75.3964 9.17201C74.4871 8.58534 73.5191 8.29201 72.4924 8.29201C71.4657 8.29201 70.7764 8.48268 70.4244 8.86401C70.1017 9.21601 69.9257 9.97868 69.8964 11.152L69.9404 31.436C69.9404 32.316 70.0137 32.9613 70.1604 33.372C70.3364 33.7827 70.6151 34.076 70.9964 34.252C71.4071 34.3987 72.0377 34.472 72.8884 34.472C72.9764 34.472 73.0204 34.56 73.0204 34.736C73.0497 34.912 73.0057 35 72.8884 35C71.9497 35 71.2164 34.9853 70.6884 34.956L67.5204 34.912L64.3964 34.956C63.8391 34.9853 63.0911 35 62.1524 35Z" fill="white"/>
<path d="M56.1567 28.004C56.2154 27.9453 56.2887 27.916 56.3767 27.916C56.4647 27.916 56.5527 27.9453 56.6407 28.004C56.7287 28.0333 56.7581 28.0627 56.7287 28.092C56.4354 29.9987 56.2887 32.0813 56.2887 34.34C56.2887 34.5747 56.2447 34.7507 56.1567 34.868C56.0687 34.956 55.8927 35 55.6287 35H35.5647C35.4474 35 35.3887 34.912 35.3887 34.736C35.3887 34.56 35.4327 34.472 35.5207 34.472C36.4007 34.472 37.0314 34.3987 37.4127 34.252C37.8234 34.1053 38.0874 33.8267 38.2047 33.416C38.3514 33.0053 38.4247 32.3453 38.4247 31.436V11.064C38.4247 10.184 38.3514 9.53866 38.2047 9.12799C38.0581 8.71732 37.7794 8.43866 37.3687 8.29199C36.9581 8.11599 36.3421 8.02799 35.5207 8.02799C35.4327 8.02799 35.3741 7.93999 35.3447 7.76399C35.3447 7.58799 35.3741 7.49999 35.4327 7.49999H54.3967C54.6314 7.49999 54.7487 7.63199 54.7487 7.89599L54.8367 13.704C54.8367 13.792 54.7487 13.836 54.5727 13.836C54.4261 13.836 54.3381 13.8067 54.3087 13.748C53.8101 12.1053 52.9007 10.8147 51.5807 9.87599C50.2901 8.90799 48.7501 8.42399 46.9607 8.42399H46.1247C45.2154 8.42399 44.5554 8.49732 44.1447 8.64399C43.7634 8.76133 43.5141 8.99599 43.3967 9.34799C43.2794 9.69999 43.2061 10.2867 43.1767 11.108V20.084H48.6767C50.1727 20.084 51.2727 19.82 51.9767 19.292C52.6807 18.764 53.0327 17.9133 53.0327 16.74C53.0327 16.6227 53.1354 16.564 53.3407 16.564C53.5461 16.564 53.6487 16.6373 53.6487 16.784L53.6047 19.204C53.5754 19.556 53.5607 20.0547 53.5607 20.7C53.5607 21.6387 53.5754 22.3427 53.6047 22.812L53.6487 25.188C53.6487 25.3347 53.5607 25.408 53.3847 25.408C53.2967 25.408 53.2087 25.3933 53.1207 25.364C53.0621 25.3053 53.0327 25.2467 53.0327 25.188C53.0327 23.9267 52.6367 22.9733 51.8447 22.328C51.0821 21.6533 49.9967 21.316 48.5887 21.316H43.1767V31.26C43.1767 32.4333 43.3527 33.196 43.7047 33.548C44.0861 33.9 44.8634 34.076 46.0367 34.076H47.2687C49.1754 34.076 50.9207 33.5333 52.5047 32.448C54.0887 31.3333 55.3061 29.852 56.1567 28.004ZM43.4847 5.16799C43.3674 5.16799 43.2794 5.10932 43.2207 4.99199C43.1621 4.84532 43.1767 4.74266 43.2647 4.68399C43.9981 4.09732 44.9661 3.17332 46.1687 1.91199C47.3714 0.709324 47.9727 0.10799 47.9727 0.10799C48.1194 -0.0386764 48.6474 0.0199907 49.5567 0.283991C50.4954 0.518658 51.3314 0.811991 52.0647 1.16399C52.8274 1.48666 53.0474 1.67732 52.7247 1.73599C49.5861 2.55732 46.5354 3.68666 43.5727 5.12399L43.4847 5.16799Z" fill="white"/>
<path d="M26.0435 8.33599C26.0142 7.98399 26.4835 7.64666 27.4515 7.32399C28.4195 6.97199 29.2849 6.79599 30.0475 6.79599C30.3115 6.79599 30.5022 6.83999 30.6195 6.92799C30.7662 6.98666 30.8249 7.07466 30.7955 7.19199L28.0235 18.896C27.9649 18.9547 27.8329 18.9987 27.6275 19.028C27.4222 19.0573 27.3195 19.028 27.3195 18.94L26.0435 8.33599Z" fill="white"/>
<path d="M1.05394 35C0.995276 35 0.965942 34.912 0.965942 34.736C0.965942 34.56 0.995276 34.472 1.05394 34.472C1.96328 34.472 2.62328 34.3987 3.03394 34.252C3.44461 34.1053 3.70861 33.8267 3.82594 33.416C3.97261 33.0053 4.04594 32.3453 4.04594 31.436V11.064C4.04594 10.184 3.97261 9.53867 3.82594 9.128C3.67928 8.71733 3.40061 8.43866 2.98994 8.292C2.57928 8.116 1.96328 8.028 1.14194 8.028C1.05394 8.028 1.00994 7.94 1.00994 7.764C1.00994 7.588 1.05394 7.5 1.14194 7.5L3.25394 7.544C4.54461 7.60267 5.58594 7.632 6.37794 7.632C7.16994 7.632 8.24061 7.60267 9.58994 7.544L11.8339 7.5C11.8926 7.5 11.9219 7.588 11.9219 7.764C11.9219 7.94 11.8926 8.028 11.8339 8.028C10.9246 8.028 10.2646 8.116 9.85394 8.292C9.47261 8.43866 9.20861 8.71733 9.06194 9.128C8.94461 9.53867 8.87128 10.1987 8.84194 11.108V31.26C8.84194 32.404 9.00328 33.1667 9.32594 33.548C9.64861 33.9 10.2646 34.076 11.1739 34.076H12.4059C14.7819 34.076 16.7619 33.548 18.3459 32.492C19.9593 31.4067 21.2499 29.7347 22.2179 27.476C22.2766 27.4173 22.3499 27.388 22.4379 27.388C22.5259 27.388 22.6139 27.4173 22.7019 27.476C22.7899 27.5053 22.8339 27.5493 22.8339 27.608C22.5993 30.0133 22.4819 32.2573 22.4819 34.34C22.4819 34.78 22.2619 35 21.8219 35H1.05394Z" fill="white"/>
</svg>
